<svg width="20" height="20" viewBox="0 0 20 20" fill="none" xmlns="http://www.w3.org/2000/svg">
<g clip-path="url(#clip0_324_2)">
<path d="M9.0174 2.2638C9.34328 2.22198 9.67145 2.20067 10 2.2C10.4066 2.2 10.8058 2.2312 11.1958 2.2912L10.1 0L9.0174 2.2638ZM0 9.9L2.2636 10.9826C2.22184 10.6567 2.2006 10.3285 2.2 10C2.2 9.5934 2.2312 9.194 2.2912 8.8042L0 9.9ZM3.8164 5.248C4.26074 4.67018 4.78351 4.15717 5.3696 3.7238L3.029 2.9286L3.8164 5.248V5.248ZM16.2372 5.316L17.1712 2.9286L14.802 3.8558C15.342 4.27785 15.8245 4.76875 16.2372 5.316V5.316ZM14.8106 16.1376L16.9712 16.8714L16.231 14.692C15.8219 15.2331 15.3444 15.719 14.8106 16.1376V16.1376ZM3.8164 14.752L3.0288 17.0714L5.2026 16.1486C4.68398 15.7428 4.21828 15.2736 3.8164 14.752V14.752ZM9.0174 17.7362L10.1 20L11.1958 17.7088C10.8058 17.7688 10.4066 17.8 10 17.8C9.67145 17.7993 9.34328 17.778 9.0174 17.7362V17.7362Z" fill="#CAA40B"/>
<path d="M9.0174 2.2638C9.34328 2.22198 9.67145 2.20067 10 2.2C10.4066 2.2 10.8058 2.2312 11.1958 2.2912L10.1 0L9.0174 2.2638ZM0 9.9L2.2636 10.9826C2.22184 10.6567 2.2006 10.3285 2.2 10C2.2 9.5934 2.2312 9.194 2.2912 8.8042L0 9.9ZM3.8164 5.248C4.26074 4.67018 4.78351 4.15717 5.3696 3.7238L3.029 2.9286L3.8164 5.248V5.248ZM16.2372 5.316L17.1712 2.9286L14.802 3.8558C15.342 4.27785 15.8245 4.76875 16.2372 5.316V5.316ZM14.8106 16.1376L16.9712 16.8714L16.231 14.692C15.8219 15.2331 15.3444 15.719 14.8106 16.1376V16.1376ZM3.8164 14.752L3.0288 17.0714L5.2026 16.1486C4.68398 15.7428 4.21828 15.2736 3.8164 14.752V14.752ZM9.0174 17.7362L10.1 20L11.1958 17.7088C10.8058 17.7688 10.4066 17.8 10 17.8C9.67145 17.7993 9.34328 17.778 9.0174 17.7362V17.7362Z" fill="#CAA40B"/>
<path d="M6.62072 1.46477L6.53312 3.01257C6.94933 2.80577 7.38336 2.63695 7.82992 2.50817L6.62072 1.46477V1.46477ZM2.60772 7.51177C2.74634 7.09808 2.91969 6.69685 3.12592 6.31237L1.59912 6.40777L2.60772 7.51177V7.51177ZM13.7121 1.40277L12.4207 2.58497C12.9078 2.74395 13.378 2.95083 13.8243 3.20257L13.7121 1.40277V1.40277ZM1.71212 13.627L3.08252 13.603C2.90695 13.2664 2.75628 12.9175 2.63172 12.559L1.71212 13.627ZM6.77032 18.6028L7.94732 17.5252C7.51007 17.4063 7.08411 17.2493 6.67432 17.056L6.77032 18.6028V18.6028ZM13.7593 18.2992L13.8449 16.7856C13.4618 17.0039 13.0608 17.1891 12.6461 17.3392L13.7593 18.2992Z" fill="#F1C411"/>
<path d="M6.62072 1.46477L6.53312 3.01257C6.94933 2.80577 7.38336 2.63695 7.82992 2.50817L6.62072 1.46477V1.46477ZM2.60772 7.51177C2.74634 7.09808 2.91969 6.69685 3.12592 6.31237L1.59912 6.40777L2.60772 7.51177V7.51177ZM13.7121 1.40277L12.4207 2.58497C12.9078 2.74395 13.378 2.95083 13.8243 3.20257L13.7121 1.40277V1.40277ZM1.71212 13.627L3.08252 13.603C2.90695 13.2664 2.75628 12.9175 2.63172 12.559L1.71212 13.627ZM6.77032 18.6028L7.94732 17.5252C7.51007 17.4063 7.08411 17.2493 6.67432 17.056L6.77032 18.6028V18.6028ZM13.7593 18.2992L13.8449 16.7856C13.4618 17.0039 13.0608 17.1891 12.6461 17.3392L13.7593 18.2992Z" fill="#F1C411"/>
<path d="M10 2.79999C13.9764 2.79999 17.2 6.02339 17.2 9.99999C17.2 13.9764 13.9764 17.2 10 17.2C6.02345 17.2 2.80005 13.9764 2.80005 9.99999C2.80005 6.02339 6.02345 2.79999 10 2.79999Z" fill="#F6D759"/>
<path d="M10.8 16.4C6.82365 16.4 3.60005 13.1764 3.60005 9.20002C3.60005 7.41542 4.25065 5.78382 5.32585 4.52582C3.78045 5.84642 2.80005 7.80822 2.80005 10C2.80005 13.9764 6.02365 17.2 10 17.2C12.1946 17.2 14.1562 16.2166 15.4774 14.669C14.2188 15.7464 12.5868 16.4 10.8 16.4Z" fill="#DDC14E"/>
<path d="M15.4774 14.669C14.2188 15.7466 12.5868 16.4 10.7998 16.4C8.19636 16.4 5.91636 15.0182 4.65156 12.9482L3.85156 13.7482C5.11636 15.8182 7.39636 17.2 9.99976 17.2C12.1942 17.2 14.1562 16.2166 15.4774 14.669Z" fill="#C5AE47"/>
<path d="M9.3999 8.20001L0.399902 17.2H17.1999V8.20001H9.3999Z" fill="#DCC050"/>
<path d="M19.1169 9.94179C19.2333 9.61579 19.3001 9.26599 19.3001 8.89999C19.3001 7.18779 17.9123 5.79999 16.2001 5.79999C14.8955 5.79999 13.7809 6.60679 13.3237 7.74799C12.8382 7.268 12.1828 6.99917 11.5001 6.99999C10.0641 6.99999 8.9001 8.16399 8.9001 9.59999C8.9001 10.2124 9.1129 10.7744 9.4677 11.2188C8.6947 11.3316 8.1001 11.9956 8.1001 12.8C8.1001 13.2243 8.26867 13.6313 8.56873 13.9314C8.86879 14.2314 9.27575 14.4 9.7001 14.4H17.3001C18.7361 14.4 19.9001 13.236 19.9001 11.8C19.9001 11.0714 19.5997 10.4138 19.1169 9.94179Z" fill="white"/>
<path d="M19.1169 9.94179C19.2333 9.61579 19.3001 9.26599 19.3001 8.89999C19.3001 7.18779 17.9123 5.79999 16.2001 5.79999C14.8955 5.79999 13.7809 6.60679 13.3237 7.74799C12.8382 7.268 12.1828 6.99917 11.5001 6.99999C10.0641 6.99999 8.9001 8.16399 8.9001 9.59999C8.9001 10.2124 9.1129 10.7744 9.4677 11.2188C8.6947 11.3316 8.1001 11.9956 8.1001 12.8C8.1001 13.2243 8.26867 13.6313 8.56873 13.9314C8.86879 14.2314 9.27575 14.4 9.7001 14.4H17.3001C18.7361 14.4 19.9001 13.236 19.9001 11.8C19.9001 11.0714 19.5997 10.4138 19.1169 9.94179Z" fill="white"/>
</g>
<defs>
<clipPath id="clip0_324_2">
<rect width="19.9" height="20" fill="white"/>
</clipPath>
</defs>
</svg>
